<?xml version="1.0" encoding="utf-8"?>
<!-- Generator: Adobe Illustrator 21.0.0, SVG Export Plug-In . SVG Version: 6.00 Build 0)  -->
<svg version="1.1" id="Layer_1" xmlns="http://www.w3.org/2000/svg" xmlns:xlink="http://www.w3.org/1999/xlink" x="0px" y="0px"
	 viewBox="0 0 512 512" style="enable-background:new 0 0 512 512;" xml:space="preserve">
 <!-- <style type="text/css">
	.st0{fill:#ffffff;}
</style> -->
<g>
	<path class='st0' d="M58.2,0C26.4,0,0,26.4,0,58.2v395.6C0,485.6,26.4,512,58.2,512h395.6c31.8,0,58.2-26.4,58.2-58.2V58.2
		C512,26.4,485.6,0,453.8,0H58.2z M58.2,46.5h395.6c6.6,0,11.6,5,11.6,11.6v395.6c0,6.6-5,11.6-11.6,11.6H58.2
		c-6.6,0-11.6-5-11.6-11.6V58.2C46.5,51.5,51.5,46.5,58.2,46.5z M126.5,86.5c-22.1,0-40,17.9-40,40s17.9,40,40,40s40-17.9,40-40
		S148.6,86.5,126.5,86.5z M336.7,192.7c-33.4,0-55.5,18.3-64.7,35.6h-1.5v-30.5H205v221.1h68.4V309.8c0-28.8,5.7-56.7,41.5-56.7
		c35.2,0,35.6,32.5,35.6,58.2v107.6h68.4V297.5C418.9,238,406.3,192.7,336.7,192.7z M93.1,197.8v221.1h69.1V197.8H93.1z"/>
</g>
</svg>
